<?xml version="1.0" encoding="UTF-8"?>
<!-- Generated by Pixelmator Pro 3.6.17 -->
<svg width="200" height="200" viewBox="0 0 200 200" xmlns="http://www.w3.org/2000/svg">
    <path id="Path" fill="#323232" fill-rule="evenodd" stroke="none" d="M 100.379967 67.447723 C 100.650826 67.167786 100.927582 66.89325 101.207901 66.624176 L 160.188095 10.336685 C 175.342682 -4.126389 195 12.510239 195 39.798996 L 195 160.201843 C 195 187.489151 175.342682 204.126312 160.188095 189.663635 L 101.207901 133.375061 C 100.927582 133.107788 100.650826 132.833252 100.379967 132.553314 L 100.379967 148.161041 C 100.379967 172.757385 82.978165 188.179062 68.992264 175.973907 L 16.450472 130.129608 C 1.183177 116.80835 1.183177 83.192688 16.450472 69.871414 L 68.992264 24.02533 C 82.978165 11.821777 100.379967 27.242218 100.379967 51.839264 L 100.379967 67.447723 Z"/>
</svg>
