<?xml version="1.0" encoding="UTF-8"?>
<!-- Generated by Pixelmator Pro 3.6.17 -->
<svg width="200" height="200" viewBox="0 0 200 200" xmlns="http://www.w3.org/2000/svg">
    <path id="Path" fill="#323232" fill-rule="evenodd" stroke="none" d="M 99.619904 67.447723 C 99.349052 67.167786 99.072289 66.89325 98.791977 66.624176 L 39.812199 10.336685 C 24.657524 -4.126389 5 12.510239 5 39.798996 L 5 160.201843 C 5 187.489151 24.657524 204.126312 39.812199 189.663635 L 98.791977 133.375061 C 99.072289 133.107788 99.349052 132.833252 99.619904 132.553314 L 99.619904 148.161041 C 99.619904 172.757385 117.021683 188.179062 131.00769 175.973907 L 183.548935 130.129608 C 198.817032 116.80835 198.817032 83.192688 183.548935 69.871414 L 131.00769 24.02533 C 117.021683 11.821777 99.619904 27.242218 99.619904 51.839264 L 99.619904 67.447723 Z"/>
</svg>
