<?xml version="1.0" encoding="UTF-8"?>
<!-- Generated by Pixelmator Pro 3.6.17 -->
<svg width="200" height="200" viewBox="0 0 200 200" xmlns="http://www.w3.org/2000/svg">
    <g id="SVGRepoiconCarrier">
        <path id="Path" fill="#323232" fill-rule="evenodd" stroke="none" d="M 176 33.5 L 176 166.5 C 176 182.240555 163.240555 195 147.5 195 L 138 195 C 122.259445 195 109.5 182.240555 109.5 166.5 L 109.5 33.5 C 109.5 17.759827 122.259445 5 138 5 L 147.5 5 C 163.240555 5 176 17.759918 176 33.5 Z"/>
        <path id="path1" fill="#323232" fill-rule="evenodd" stroke="none" d="M 62 5 C 77.740074 5 90.5 17.759918 90.5 33.5 L 90.5 166.5 C 90.5 182.240555 77.740074 195 62 195 L 52.5 195 C 36.759926 195 24 182.240555 24 166.5 L 24 33.5 C 24 17.759827 36.759926 5 52.5 5 L 62 5 Z"/>
    </g>
</svg>
